<?xml version="1.0" encoding="UTF-8"?>
<svg width="12px" height="12px" viewBox="0 0 12 12" version="1.1" xmlns="http://www.w3.org/2000/svg" xmlns:xlink="http://www.w3.org/1999/xlink">
    <!-- Generator: Sketch 46.2 (44496) - http://www.bohemiancoding.com/sketch -->
    <title>Icons / 16px / Center</title>
    <desc>Created with Sketch.</desc>
    <defs>
        <path d="M3.10002519,7 C3.49771884,5.0408903 5.04088086,3.49774599 7,3.10007832 L7,3 C7,2.44771525 7.44771525,2 8,2 C8.55228475,2 9,2.44771525 9,3 L9,3.10009186 C10.9590875,3.49778099 12.502219,5.04091252 12.8999081,7 L13,7 C13.5522847,7 14,7.44771525 14,8 C14,8.55228475 13.5522847,9 13,9 L12.8999217,9 C12.502254,10.9591191 10.9591097,12.5022812 9,12.8999748 L9,13 C9,13.5522847 8.55228475,14 8,14 C7.44771525,14 7,13.5522847 7,13 L7,12.8999883 C5.04085864,12.5023162 3.49768383,10.9591414 3.10001166,9 L3,9 C2.44771525,9 2,8.55228475 2,8 C2,7.44771525 2.44771525,7 3,7 L3.10002519,7 Z M5.16591352,7.01370035 C5.63923625,7.09273616 6,7.50423764 6,8 C6,8.49577002 5.63922511,8.90727655 5.1658916,8.98630331 C5.46634104,9.84975461 6.15024539,10.533659 7.01369669,10.8341084 C7.09272345,10.3607749 7.50422998,10 8,10 C8.49576236,10 8.90726384,10.3607638 8.98629965,10.8340865 C9.84972472,10.5336245 10.5336052,9.84972805 10.8340454,8.98629279 C10.3607429,8.90724003 10,8.49574802 10,8 C10,7.50425963 10.3607317,7.09277268 10.8340235,7.01371087 C10.5335707,6.15030184 9.84969816,5.46642933 8.98628913,5.16597653 C8.90722732,5.63926826 8.49574037,6 8,6 C7.50425198,6 7.09275997,5.63925712 7.01370721,5.1659546 C6.15027195,5.46639484 5.46637553,6.15027528 5.16591352,7.01370035 Z" id="path-1"></path>
    </defs>
    <g id="Design-Sprint-6" stroke="none" stroke-width="1" fill="none" fill-rule="evenodd">
        <g id="Map-View-1.1" transform="translate(-1365.000000, -161.000000)">
            <g id="View-Options" transform="translate(1326.000000, 151.000000)">
                <g id="Icons-/-16px-/-Center" transform="translate(37.000000, 8.000000)">
                    <path d="M2,14 L14,14 L14,2 L2,2 L2,14 Z M0,16 L16,16 L16,0 L0,0 L0,16 Z" id="Icon-Container" fill-opacity="0" fill="#FF5D2A"></path>
                    <mask id="mask-2" fill="white">
                        <use xlink:href="#path-1"></use>
                    </mask>
                    <use id="Icon" fill="#FF5D2A" fill-rule="nonzero" xlink:href="#path-1"></use>
                    <g id="Fill-/-Dark-Grey" mask="url(#mask-2)" fill="#ACB1C0">
                        <rect id="Rectangle" x="0" y="0" width="16" height="16"></rect>
                    </g>
                </g>
            </g>
        </g>
    </g>
</svg>