<?xml version="1.0" encoding="UTF-8"?>
<svg width="12px" height="12px" viewBox="0 0 12 12" version="1.1" xmlns="http://www.w3.org/2000/svg" xmlns:xlink="http://www.w3.org/1999/xlink">
    <!-- Generator: Sketch 46.2 (44496) - http://www.bohemiancoding.com/sketch -->
    <title>Icons / 16px / Collapse</title>
    <desc>Created with Sketch.</desc>
    <defs>
        <path d="M3.58546047,5.00050691 L3.00086647,5.00000038 C2.44858193,4.99952184 2.00047892,5.44684898 2.00000038,5.99913353 C1.99952184,6.55141807 2.44684898,6.99952108 2.99913353,6.99999962 L5.99975332,7.00259958 C6.25587308,7.0028324 6.51207041,6.90528389 6.70754569,6.70993447 C6.90302088,6.51458514 7.00073438,6.25845085 7.00066663,6.00233178 L6.99999998,2.99977797 C6.99987735,2.44749323 6.55206271,1.9998774 5.99977797,2.00000002 C5.44749323,2.00012265 4.9998774,2.44793729 5.00000002,3.00022203 L5.00013025,3.58674971 L3.70733447,2.29312098 C3.31693596,1.90247094 2.68377102,1.90226703 2.29312098,2.29266553 C1.90247094,2.68306404 1.90226703,3.31622898 2.29266553,3.70687902 L3.58546047,5.00050691 Z M11.0011513,3.58828641 L10.9999981,2.99804614 C10.998919,2.44576245 10.5503298,1.99892282 9.99804614,2.00000191 C9.44576245,2.001081 8.99892282,2.44967016 9.00000191,3.00195386 L9.0058685,6.00451438 C9.00635732,6.26026878 9.1043493,6.5158458 9.29975894,6.71070443 C9.49516822,6.9055627 9.75102034,7.00283259 10.0067746,7.00259959 L13.0008684,6.99999962 C13.5531529,6.99952004 14.0004792,6.55141618 13.9999996,5.99913164 C13.99952,5.44684709 13.5514162,4.99952079 12.9991316,5.00000038 L12.4173565,5.00050557 L13.7081044,3.70610773 C14.098077,3.31503245 14.097183,2.6818681 13.7061077,2.29189557 C13.3150325,1.90192305 12.6818681,1.902817 12.2918956,2.29389227 L11.0011513,3.58828641 Z M5.00113971,12.4167202 L5.00000192,12.9980428 C4.99892096,13.5503264 5.44575906,13.9989171 5.99804275,13.9999981 C6.55032644,14.001079 6.99891713,13.5542409 6.99999808,13.0019572 L7.00586466,10.0046037 C7.00637689,9.74848409 6.90910726,9.49217964 6.71397001,9.29649118 C6.5188334,9.10080338 6.26280538,9.00281118 6.0066862,9.00260033 L3.00086497,9.00000037 C2.44858043,8.99952266 2.00047809,9.44685048 2.00000037,9.99913503 C1.99952266,10.5514196 2.44685048,10.9995219 2.99913503,10.9999996 L3.58892581,11.0005098 L2.29389118,12.2918967 C1.90281651,12.6818698 1.90192353,13.3150341 2.29189666,13.7061088 C2.68186979,14.0971835 3.31503414,14.0980765 3.70610882,13.7081033 L5.00113971,12.4167202 Z M12.4147213,11.0005077 L13.0008669,10.9999996 C13.5531514,10.9995209 14.0004784,10.5514177 13.9999996,9.99913314 C13.9995209,9.4468486 13.5514177,8.99952162 12.9991331,9.00000038 L10.0714246,9.00253829 C9.79225239,8.98266861 9.50633285,9.07945359 9.29289322,9.29289322 C9.08836819,9.49741825 8.99095682,9.76849517 9.00065912,10.036415 L9.00000002,12.9997776 C8.99987719,13.5520623 9.44749285,13.9998771 9.99977759,14 C10.5520623,14.0001228 10.9998771,13.5525072 11,13.0002224 L11.0001303,12.4143438 L12.2928932,13.7071068 C12.6834175,14.0976311 13.3165825,14.0976311 13.7071068,13.7071068 C14.0976311,13.3165825 14.0976311,12.6834175 13.7071068,12.2928932 L12.4147213,11.0005077 Z" id="path-1"></path>
    </defs>
    <g id="Design-Sprint-6" stroke="none" stroke-width="1" fill="none" fill-rule="evenodd">
        <g id="Map-View-1.2" transform="translate(-585.000000, -960.000000)">
            <g id="Map" transform="translate(24.000000, 146.000000)">
                <g id="Group-4" transform="translate(559.000000, 812.000000)">
                    <g id="Icons-/-16px-/-Collapse">
                        <path d="M2,14 L14,14 L14,2 L2,2 L2,14 Z M0,16 L16,16 L16,0 L0,0 L0,16 Z" id="Icon-Container" fill-opacity="0" fill="#FF5D2A"></path>
                        <mask id="mask-2" fill="white">
                            <use xlink:href="#path-1"></use>
                        </mask>
                        <use id="Icon" fill="#FF5D2A" fill-rule="nonzero" xlink:href="#path-1"></use>
                        <g id="Fill-/-Dark-Grey" mask="url(#mask-2)" fill="#ACB1C0">
                            <rect id="Rectangle" x="0" y="0" width="16" height="16"></rect>
                        </g>
                    </g>
                </g>
            </g>
        </g>
    </g>
</svg>