<?xml version="1.0" encoding="UTF-8"?>
<svg width="12px" height="13px" viewBox="0 0 12 13" version="1.1" xmlns="http://www.w3.org/2000/svg" xmlns:xlink="http://www.w3.org/1999/xlink">
    <!-- Generator: Sketch 46.2 (44496) - http://www.bohemiancoding.com/sketch -->
    <title>Icons / 16px / Expand</title>
    <desc>Created with Sketch.</desc>
    <defs>
        <path d="M12.0006379,10.5874866 L12.0000006,10.0010868 C11.9994004,9.44880239 12.4466288,9.00060082 12.9989132,9.00000059 C13.5511976,8.99940036 13.9993992,9.44662877 13.9999994,9.99891319 L14.0032659,13.0045181 C14.003575,13.2609822 13.905839,13.517535 13.7100831,13.7131303 C13.5143269,13.9087259 13.2576933,14.0062512 13.0012291,14.0057313 L9.99809097,13.9999982 C9.44580723,13.9989439 8.99894749,13.5503747 9.00000182,12.998091 C9.00105615,12.4458072 9.44962529,11.9989475 10.001909,12.0000018 L10.585841,12.0011166 L9.29260301,10.7068165 C8.90223906,10.3161319 8.90249898,9.68296696 9.29318354,9.29260301 C9.68386811,8.90223906 10.317033,8.90249898 10.707397,9.29318354 L12.0006379,10.5874866 Z M12.0006349,5.41745657 L12.0000006,5.99890903 C11.9993981,6.55119345 12.4466246,6.99939688 12.998909,6.9999994 C13.5511934,7.00060193 13.9993969,6.55337539 13.9999994,6.00109097 L14.003266,3.00685369 C14.0035532,2.75105828 13.9063061,2.49514653 13.7114337,2.29968844 C13.5165611,2.10423007 13.2609419,2.00621533 13.0051464,2.0057351 L10.001909,2.00000182 C9.44962529,1.99894749 9.00105615,2.44580723 9.00000182,2.99809097 C8.99894749,3.55037471 9.44580723,3.99894385 9.99809097,3.99999818 L10.5885422,4.00112537 L9.29395511,5.29183292 C8.90284523,5.68177075 8.90189509,6.31493501 9.29183292,6.70604489 C9.68177075,7.09715477 10.314935,7.09810491 10.7060449,6.70816708 L12.0006349,5.41745657 Z M4.00063782,5.41591518 L3.9999994,6.00109097 C3.99939688,6.55337539 3.55119345,7.00060193 2.99890903,6.9999994 C2.44662461,6.99939688 1.99939807,6.55119345 2.0000006,5.99890903 L2.00326714,3.0047532 C2.00351531,2.7492949 2.10104092,2.49390614 2.29586881,2.29891775 C2.49069678,2.10392928 2.74600529,2.0061934 3.00146339,2.00573495 L5.99808681,2.00000183 C6.55037055,1.9989452 6.99894154,2.44580307 6.99999817,2.99808681 C7.0010548,3.55037055 6.55419693,3.99894154 6.00191319,3.99999817 L5.41427197,4.00112244 L6.70681559,5.29260214 C7.09750063,5.68296561 7.09776133,6.31613054 6.70739786,6.70681559 C6.31703439,7.09750063 5.68386946,7.09776133 5.29318441,6.70739786 L4.00063782,5.41591518 Z M4.00064075,10.5890251 L3.99999941,9.99891319 C3.99939918,9.44662877 3.55119761,8.99940036 2.99891319,9.00000059 C2.44662877,9.00060082 1.99940036,9.44880239 2.00000059,10.0010868 L2.00326722,13.0067857 C2.00353741,13.2628569 2.10155234,13.5188169 2.2972209,13.7138995 C2.4928898,13.9089826 2.74914312,14.0062295 3.00521441,14.0057314 L6.00191319,13.9999982 C6.55419693,13.9989415 7.0010548,13.5503705 6.99999817,12.9980868 C6.99894154,12.4458031 6.55037055,11.9989452 5.99808681,12.0000018 L5.41697616,12.0011136 L6.70816621,10.7060458 C7.09810452,10.3149364 7.09715516,9.6817721 6.70604576,9.29183379 C6.31493637,8.90189548 5.6817721,8.90284484 5.29183379,9.29395424 L4.00064075,10.5890251 Z" id="path-1"></path>
    </defs>
    <g id="Design-Sprint-6" stroke="none" stroke-width="1" fill="none" fill-rule="evenodd">
        <g id="Map-View-1.3" transform="translate(-585.000000, -960.000000)">
            <g id="Map" transform="translate(24.000000, 146.000000)">
                <g id="Group-4" transform="translate(559.000000, 812.000000)">
                    <g id="Icons-/-16px-/-Expand">
                        <path d="M2,14 L14,14 L14,2 L2,2 L2,14 Z M0,16 L16,16 L16,0 L0,0 L0,16 Z" id="Icon-Container" fill="#FF5D2A" opacity="0"></path>
                        <mask id="mask-2" fill="white">
                            <use xlink:href="#path-1"></use>
                        </mask>
                        <use id="Mask" fill="#FF5D2A" fill-rule="nonzero" xlink:href="#path-1"></use>
                        <g id="Fill-/-Dark-Grey" mask="url(#mask-2)" fill="#ACB1C0">
                            <rect id="Rectangle" x="0" y="0" width="16" height="16"></rect>
                        </g>
                    </g>
                </g>
            </g>
        </g>
    </g>
</svg>