<?xml version="1.0" encoding="UTF-8" standalone="no"?>
<svg
   xmlns:dc="http://purl.org/dc/elements/1.1/"
   xmlns:cc="http://creativecommons.org/ns#"
   xmlns:rdf="http://www.w3.org/1999/02/22-rdf-syntax-ns#"
   xmlns:svg="http://www.w3.org/2000/svg"
   xmlns="http://www.w3.org/2000/svg"
   xmlns:xlink="http://www.w3.org/1999/xlink"
   xmlns:sodipodi="http://sodipodi.sourceforge.net/DTD/sodipodi-0.dtd"
   xmlns:inkscape="http://www.inkscape.org/namespaces/inkscape"
   width="12px"
   height="12px"
   viewBox="0 0 12 12"
   version="1.1"
   id="svg2"
   inkscape:version="0.91 r13725"
   sodipodi:docname="Plus-blue.svg">
  <metadata
     id="metadata24">
    <rdf:RDF>
      <cc:Work
         rdf:about="">
        <dc:format>image/svg+xml</dc:format>
        <dc:type
           rdf:resource="http://purl.org/dc/dcmitype/StillImage" />
        <dc:title>Icons / 16px / Plus</dc:title>
      </cc:Work>
    </rdf:RDF>
  </metadata>
  <sodipodi:namedview
     pagecolor="#ffffff"
     bordercolor="#666666"
     borderopacity="1"
     objecttolerance="10"
     gridtolerance="10"
     guidetolerance="10"
     inkscape:pageopacity="0"
     inkscape:pageshadow="2"
     inkscape:window-width="1280"
     inkscape:window-height="687"
     id="namedview22"
     showgrid="false"
     inkscape:zoom="19.666667"
     inkscape:cx="-8.8474576"
     inkscape:cy="6.0000001"
     inkscape:window-x="0"
     inkscape:window-y="1"
     inkscape:window-maximized="1"
     inkscape:current-layer="svg2" />
  <!-- Generator: Sketch 46.2 (44496) - http://www.bohemiancoding.com/sketch -->
  <title
     id="title4">Icons / 16px / Plus</title>
  <desc
     id="desc6">Created with Sketch.</desc>
  <defs
     id="defs8">
    <path
       d="M9,7 L9,3 C9,2.44771525 8.55228475,2 8,2 C7.44771525,2 7,2.44771525 7,3 L7,7 L3,7 C2.44771525,7 2,7.44771525 2,8 C2,8.55228475 2.44771525,9 3,9 L7,9 L7,13 C7,13.5522847 7.44771525,14 8,14 C8.55228475,14 9,13.5522847 9,13 L9,9 L13,9 C13.5522847,9 14,8.55228475 14,8 C14,7.44771525 13.5522847,7 13,7 L9,7 Z"
       id="path-1" />
  </defs>
  <g
     id="Design-Sprint-6"
     stroke="none"
     stroke-width="1"
     fill="none"
     fill-rule="evenodd"
     style="fill:#ffffff">
    <g
       id="Map-View-1.1"
       transform="translate(-1334.000000, -161.000000)"
       style="fill:#ffffff">
      <g
         id="View-Options"
         transform="translate(1326.000000, 151.000000)"
         style="fill:#ffffff">
        <g
           id="Icons-/-16px-/-Plus"
           transform="translate(6.000000, 8.000000)"
           style="fill:#ffffff">
          <path
             d="M2,14 L14,14 L14,2 L2,2 L2,14 Z M0,16 L16,16 L16,0 L0,0 L0,16 Z"
             id="Icon-Container"
             fill-opacity="0"
             fill="#FF5D2A"
             style="fill:#ffffff" />
          <mask
             id="mask-2"
             fill="white">
            <use
               xlink:href="#path-1"
               id="use17" />
          </mask>
          <use
             id="Mask"
             fill="#FF5D2A"
             fill-rule="nonzero"
             xlink:href="#path-1"
             style="fill:#ffffff" />
          <g
             id="Fill-/-Dark-Grey"
             mask="url(#mask-2)"
             fill="#ACB1C0"
             style="fill:#ffffff">
            <rect
               id="Rectangle"
               x="0"
               y="0"
               width="16"
               height="16"
               style="fill:#ffffff" />
          </g>
        </g>
      </g>
    </g>
  </g>
</svg>
