<?xml version="1.0" encoding="UTF-8"?>
<svg width="12px" height="12px" viewBox="0 0 12 12" version="1.1" xmlns="http://www.w3.org/2000/svg" xmlns:xlink="http://www.w3.org/1999/xlink">
    <!-- Generator: Sketch 46.2 (44496) - http://www.bohemiancoding.com/sketch -->
    <title>Icons / 16px / Plus</title>
    <desc>Created with Sketch.</desc>
    <defs>
        <path d="M9,7 L9,3 C9,2.44771525 8.55228475,2 8,2 C7.44771525,2 7,2.44771525 7,3 L7,7 L3,7 C2.44771525,7 2,7.44771525 2,8 C2,8.55228475 2.44771525,9 3,9 L7,9 L7,13 C7,13.5522847 7.44771525,14 8,14 C8.55228475,14 9,13.5522847 9,13 L9,9 L13,9 C13.5522847,9 14,8.55228475 14,8 C14,7.44771525 13.5522847,7 13,7 L9,7 Z" id="path-1"></path>
    </defs>
    <g id="Design-Sprint-6" stroke="none" stroke-width="1" fill="none" fill-rule="evenodd">
        <g id="Map-View-1.1" transform="translate(-1334.000000, -161.000000)">
            <g id="View-Options" transform="translate(1326.000000, 151.000000)">
                <g id="Icons-/-16px-/-Plus" transform="translate(6.000000, 8.000000)">
                    <path d="M2,14 L14,14 L14,2 L2,2 L2,14 Z M0,16 L16,16 L16,0 L0,0 L0,16 Z" id="Icon-Container" fill-opacity="0" fill="#FF5D2A"></path>
                    <mask id="mask-2" fill="white">
                        <use xlink:href="#path-1"></use>
                    </mask>
                    <use id="Mask" fill="#FF5D2A" fill-rule="nonzero" xlink:href="#path-1"></use>
                    <g id="Fill-/-Dark-Grey" mask="url(#mask-2)" fill="#ACB1C0">
                        <rect id="Rectangle" x="0" y="0" width="16" height="16"></rect>
                    </g>
                </g>
            </g>
        </g>
    </g>
</svg>